<svg width="25" height="25" viewBox="0 0 25 25" fill="none" xmlns="http://www.w3.org/2000/svg">
<path d="M14.501 22.8163C14.2975 23.1637 14.0055 23.452 13.6541 23.6524C13.3026 23.8528 12.9042 23.9583 12.4987 23.9583C12.0932 23.9583 11.6948 23.8528 11.3433 23.6524C10.9919 23.452 10.6999 23.1637 10.4964 22.8163M19.4431 7.91788C19.4431 6.09419 18.7115 4.3452 17.4092 3.05565C16.1068 1.76611 14.3405 1.04166 12.4987 1.04166C10.6569 1.04166 8.89057 1.76611 7.58823 3.05565C6.2859 4.3452 5.55425 6.09419 5.55425 7.91788C5.55425 15.9401 2.08203 18.2322 2.08203 18.2322H22.9154C22.9154 18.2322 19.4431 15.9401 19.4431 7.91788Z" stroke="#214AEE" stroke-width="2" stroke-linecap="round" stroke-linejoin="round"/>
</svg>
