<svg width="28" height="28" viewBox="0 0 28 28" fill="none" xmlns="http://www.w3.org/2000/svg">
<path d="M15.4182 23.3969C15.2267 23.7223 14.9519 23.9924 14.6213 24.1801C14.2907 24.3679 13.9159 24.4667 13.5344 24.4667C13.1529 24.4667 12.778 24.3679 12.4474 24.1801C12.1168 23.9924 11.842 23.7223 11.6506 23.3969M20.0677 9.44114C20.0677 7.73284 19.3794 6.09451 18.1541 4.88657C16.9289 3.67862 15.2671 3 13.5344 3C11.8016 3 10.1398 3.67862 8.91461 4.88657C7.68937 6.09451 7.00104 7.73284 7.00104 9.44114C7.00104 16.9558 3.73438 19.1029 3.73438 19.1029H23.3344C23.3344 19.1029 20.0677 16.9558 20.0677 9.44114Z" stroke="#214AEE" stroke-width="3" stroke-linecap="round" stroke-linejoin="round"/>
</svg>
