<svg width="26" height="25" viewBox="0 0 26 25" fill="none" xmlns="http://www.w3.org/2000/svg">
<path d="M12.375 22.3542C12.375 23.2171 11.6754 23.9167 10.8125 23.9167C9.94955 23.9167 9.25 23.2171 9.25 22.3542" stroke="#214AEE" stroke-width="2" stroke-linecap="round" stroke-linejoin="round"/>
<path d="M22.793 22.3542C22.793 23.2171 22.0934 23.9167 21.2305 23.9167C20.3675 23.9167 19.668 23.2171 19.668 22.3542" stroke="#214AEE" stroke-width="2" stroke-linecap="round" stroke-linejoin="round"/>
<path d="M1.96094 1H6.1276L8.91927 15.8774C9.01453 16.389 9.27542 16.8485 9.6563 17.1755C10.0372 17.5025 10.5137 17.6763 11.0026 17.6663H21.1276C21.6165 17.6763 22.093 17.5025 22.4739 17.1755C22.8548 16.8485 23.1157 16.389 23.2109 15.8774L24.8776 6.20833H7.10492" stroke="#214AEE" stroke-width="2" stroke-linecap="round" stroke-linejoin="round"/>
</svg>
