<svg width="28" height="28" viewBox="0 0 28 28" fill="none" xmlns="http://www.w3.org/2000/svg">
<path d="M8.43333 19.7C8.18889 19.4111 8.06667 19.0831 8.06667 18.716C8.06667 18.3498 8.18889 18.0444 8.43333 17.8L10.9 15.3333H1.33333C0.955556 15.3333 0.639111 15.2053 0.384 14.9493C0.128 14.6942 0 14.3778 0 14C0 13.6222 0.128 13.3053 0.384 13.0493C0.639111 12.7942 0.955556 12.6667 1.33333 12.6667H10.9L8.43333 10.2C8.16667 9.93333 8.03333 9.61689 8.03333 9.25067C8.03333 8.88356 8.16667 8.56667 8.43333 8.3C8.67778 8.03333 8.98356 7.9 9.35067 7.9C9.71689 7.9 10.0222 8.02222 10.2667 8.26667L15.0667 13.0667C15.2 13.2 15.2947 13.3444 15.3507 13.5C15.4058 13.6556 15.4333 13.8222 15.4333 14C15.4333 14.1778 15.4058 14.3444 15.3507 14.5C15.2947 14.6556 15.2 14.8 15.0667 14.9333L10.2667 19.7333C10 20 9.68889 20.1222 9.33333 20.1C8.97778 20.0778 8.67778 19.9444 8.43333 19.7ZM13.3333 26C12.9556 26 12.6391 25.872 12.384 25.616C12.128 25.3609 12 25.0444 12 24.6667C12 24.2889 12.128 23.9724 12.384 23.7173C12.6391 23.4613 12.9556 23.3333 13.3333 23.3333H21.3333V4.66667H13.3333C12.9556 4.66667 12.6391 4.53867 12.384 4.28267C12.128 4.02756 12 3.71111 12 3.33333C12 2.95556 12.128 2.63867 12.384 2.38267C12.6391 2.12756 12.9556 2 13.3333 2H21.3333C22.0667 2 22.6947 2.26089 23.2173 2.78267C23.7391 3.30533 24 3.93333 24 4.66667V23.3333C24 24.0667 23.7391 24.6947 23.2173 25.2173C22.6947 25.7391 22.0667 26 21.3333 26H13.3333Z" fill="#214AEE"/>
</svg>
