<svg width="56" height="53" viewBox="0 0 56 53" fill="none" xmlns="http://www.w3.org/2000/svg">
<path d="M1.5 1H8.74461C10.1744 1 11.4055 2.00907 11.6862 3.41107L12.6695 8.32257M16.7318 33L12.6695 8.32257M16.7318 33H33.776H48.3357C49.777 33 51.0147 31.975 51.2832 30.5589L54.8251 11.8815C55.1755 10.0335 53.7586 8.32257 51.8776 8.32257H12.6695M16.7318 33L17.5989 38.4697C17.8299 39.927 19.0864 41 20.5619 41H47.5" stroke="#888888" stroke-width="2" stroke-linecap="round" stroke-linejoin="round"/>
<circle cx="22.5" cy="45" r="4" stroke="#888888" stroke-width="2"/>
<circle cx="47.5" cy="45" r="4" stroke="#888888" stroke-width="2"/>
<rect x="25.5" y="14" width="13" height="3" rx="1.5" transform="rotate(90 25.5 14)" stroke="#888888" stroke-width="2"/>
<rect x="35.5" y="14" width="13" height="3" rx="1.5" transform="rotate(90 35.5 14)" stroke="#888888" stroke-width="2"/>
<rect x="45.5" y="14" width="13" height="3" rx="1.5" transform="rotate(90 45.5 14)" stroke="#888888" stroke-width="2"/>
</svg>
