<svg width="54" height="46" viewBox="0 0 54 46" fill="none" xmlns="http://www.w3.org/2000/svg">
<path d="M30.3473 1C31.7471 1 34.9773 1 36.6995 1C38.8523 1 39.298 3.26514 39.6694 4.49083C39.9666 5.47139 42.2761 16.9447 43.3938 22.5588M51.8905 24.1036C43.2511 20.5606 36.6105 23.0566 32.5798 30.6341C31.5253 32.6167 31.0695 35.69 26.8218 35.69C25.9073 35.69 24.4188 35.69 22.6078 35.69M22.6078 35.69C17.1875 35.69 8.87803 35.69 4.42171 35.69C-0.00373197 35.69 0.897311 29.5636 1.53369 27.8553C2.88836 24.2187 7.44021 18.6967 12.4259 18.6967C16.4144 18.6967 20.7119 18.6967 18.1137 18.6967C19.6117 18.603 22.6078 19.2444 22.6078 22.5588C22.6078 25.8732 22.6078 32.6939 22.6078 35.69ZM18.3225 35.69C18.5997 36.4534 18.7479 36.9721 18.7479 37.8313C18.7479 41.7904 15.5384 45 11.5792 45C7.61998 45 4.41043 41.7904 4.41043 37.8313C4.41043 36.9721 4.5767 36.4534 4.85385 35.69M5.05657 6.37158H17.6461M8.64615 9.86546H17.6461M5.5 13.3593H17.6461M53 37.8313C53 41.7904 49.7904 45 45.8313 45C41.8721 45 38.6625 41.7904 38.6625 37.8313C38.6625 33.8721 41.8721 30.6625 45.8313 30.6625C49.7904 30.6625 53 33.8721 53 37.8313ZM48.5 16C42.8418 15.5238 41.2994 12.7733 41.2994 10.5061C41.2994 8.23896 42.8418 6.48841 48.5 6.01225C49.4902 5.92892 50.2994 6.70711 50.2994 7.65292V14.3593C50.2994 15.3051 49.4902 16.0833 48.5 16Z" stroke="#888888" stroke-width="2" stroke-linecap="round" stroke-linejoin="round"/>
</svg>
