<svg width="47" height="53" viewBox="0 0 47 53" fill="none" xmlns="http://www.w3.org/2000/svg">
<path d="M6.25 1.5H41.25C43.4591 1.5 45.25 3.29086 45.25 5.5V50.5C45.25 51.0523 44.8023 51.5 44.25 51.5H6.25C5.69772 51.5 5.25 51.0523 5.25 50.5V2.5C5.25 1.94772 5.69772 1.5 6.25 1.5Z" stroke="#888888" stroke-width="2"/>
<path d="M5.25 1.5L41.2024 1.5C41.781 1.5 42.25 1.96904 42.25 2.54762L42.25 9.5L5.25 9.5C3.04086 9.5 1.25 7.70914 1.25 5.5C1.25 3.29086 3.04086 1.5 5.25 1.5Z" fill="#F2F2F2" stroke="#888888" stroke-width="2"/>
<mask id="path-3-inside-1_2545_8121" fill="white">
<path fill-rule="evenodd" clip-rule="evenodd" d="M46.25 5.5C46.25 2.73858 44.0114 0.5 41.25 0.5C38.4886 0.5 36.25 2.73858 36.25 5.5C36.25 7.55032 37.4841 9.3124 39.25 10.084V52.5H44.25C45.3546 52.5 46.25 51.6046 46.25 50.5V5.5Z"/>
</mask>
<path fill-rule="evenodd" clip-rule="evenodd" d="M46.25 5.5C46.25 2.73858 44.0114 0.5 41.25 0.5C38.4886 0.5 36.25 2.73858 36.25 5.5C36.25 7.55032 37.4841 9.3124 39.25 10.084V52.5H44.25C45.3546 52.5 46.25 51.6046 46.25 50.5V5.5Z" fill="#F2F2F2"/>
<path d="M39.25 10.084H41.25V8.77523L40.0507 8.25125L39.25 10.084ZM39.25 52.5H37.25V54.5H39.25V52.5ZM41.25 2.5C42.9069 2.5 44.25 3.84315 44.25 5.5H48.25C48.25 1.63401 45.116 -1.5 41.25 -1.5V2.5ZM38.25 5.5C38.25 3.84315 39.5931 2.5 41.25 2.5V-1.5C37.384 -1.5 34.25 1.63401 34.25 5.5H38.25ZM40.0507 8.25125C38.987 7.78649 38.25 6.72708 38.25 5.5H34.25C34.25 8.37355 35.9812 10.8383 38.4493 11.9167L40.0507 8.25125ZM41.25 52.5V10.084H37.25V52.5H41.25ZM44.25 50.5H39.25V54.5H44.25V50.5ZM44.25 50.5V54.5C46.4591 54.5 48.25 52.7091 48.25 50.5H44.25ZM44.25 5.5V50.5H48.25V5.5H44.25Z" fill="#888888" mask="url(#path-3-inside-1_2545_8121)"/>
<path d="M10.25 14.5H35.25" stroke="#888888" stroke-width="2" stroke-linecap="round"/>
<path d="M10.25 22.5H27.25" stroke="#888888" stroke-width="2" stroke-linecap="round"/>
<path d="M10.25 29.5H30.25" stroke="#888888" stroke-width="2" stroke-linecap="round"/>
<path d="M10.25 37.5H22.25" stroke="#888888" stroke-width="2" stroke-linecap="round"/>
</svg>
