<svg width="31" height="31" viewBox="0 0 31 31" fill="none" xmlns="http://www.w3.org/2000/svg">
<path d="M17.5375 27.104C17.3177 27.4829 17.0023 27.7973 16.6228 28.0159C16.2433 28.2345 15.813 28.3496 15.375 28.3496C14.937 28.3496 14.5067 28.2345 14.1272 28.0159C13.7477 27.7973 13.4323 27.4829 13.2125 27.104M22.875 10.854C22.875 8.86488 22.0848 6.95723 20.6783 5.5507C19.2718 4.14418 17.3641 3.354 15.375 3.354C13.3859 3.354 11.4782 4.14418 10.0717 5.5507C8.66518 6.95723 7.875 8.86488 7.875 10.854C7.875 19.604 4.125 22.104 4.125 22.104H26.625C26.625 22.104 22.875 19.604 22.875 10.854Z" stroke="#214AEE" stroke-width="3" stroke-linecap="round" stroke-linejoin="round"/>
</svg>
