<svg width="14" height="15" viewBox="0 0 14 15" fill="none" xmlns="http://www.w3.org/2000/svg">
<path fill-rule="evenodd" clip-rule="evenodd" d="M1.64979 0.947376C1.80289 0.794503 1.98673 0.675914 2.18913 0.599467C2.39154 0.52302 2.60787 0.49046 2.82381 0.503946C3.03975 0.517431 3.25035 0.576654 3.44167 0.67769C3.63298 0.778726 3.80064 0.919267 3.93354 1.09L5.50416 3.10775C5.79204 3.47788 5.89354 3.96 5.77979 4.415L5.30116 6.33125C5.27659 6.43051 5.27801 6.53443 5.30529 6.63298C5.33257 6.73153 5.38479 6.82138 5.45691 6.89388L7.60679 9.04375C7.67937 9.11602 7.76937 9.16832 7.86809 9.19561C7.96681 9.22289 8.0709 9.22423 8.17029 9.1995L10.0857 8.72088C10.3102 8.66506 10.5445 8.66086 10.7709 8.7086C10.9973 8.75634 11.21 8.85477 11.3929 8.9965L13.4107 10.5662C14.136 11.1306 14.2025 12.2025 13.5533 12.8509L12.6485 13.7556C12.001 14.4031 11.0333 14.6875 10.1312 14.3699C7.82175 13.5584 5.72513 12.2364 3.99741 10.5024C2.26349 8.77491 0.94152 6.6786 0.129912 4.3695C-0.186838 3.46825 0.0975371 2.49963 0.745037 1.85213L1.64979 0.947376Z" fill="#666666"/>
</svg>
