<?xml version="1.0" encoding="UTF-8"?>
<svg id="Layer_1" data-name="Layer 1" xmlns="http://www.w3.org/2000/svg" viewBox="0 0 150 131.31">
  <defs>
    <style>
      .cls-1 {
        fill: #214aee;
      }
    </style>
  </defs>
  <g id="Layer_1-2" data-name="Layer 1-2">
    <g>
      <path class="cls-1" d="M88.94,97.66c-3.78-3.89-7.43-7.66-11.09-11.41-.03-.03-.03-.06,0-.08,7.06-8.65,15.67-15,28.2-15.81,14.62-.94,27.69,5.81,33.88,17.37,11.39,21.3-8.2,45.53-34.55,43.46-8.44-.66-15.84-4.07-21.98-10.21-9.92-9.92-19.53-20.08-29.34-30.1-4.77-4.86-10.97-6.47-18.15-4.79-3.67,.85-6.95,2.82-9.08,5.62-8.87,11.63,1.71,25.33,15.61,24.03,4.85-.46,8.8-2.33,11.95-5.62,2.05-2.15,4.14-4.26,6.32-6.5,.03-.03,.08-.03,.11,0,3.77,3.89,7.45,7.68,11.1,11.43,.03,.03,.03,.06,0,.08-5.37,6.42-11.5,11.73-19.95,14.32-20.04,6.13-41.82-5.71-44.83-24.4-2.72-16.94,10.41-32.53,29.6-34.57,11.56-1.23,21.66,1.93,29.47,9.69,9.99,9.92,19.62,20.12,29.44,30.19,8.66,8.88,25.41,6.96,29.86-5.49,1.35-3.78,.75-7.88-1.38-11.36-3.57-5.86-9.37-8.42-16.71-7.95-4.91,.32-8.89,2.31-12.06,5.64-2.02,2.13-4.1,4.22-6.28,6.47-.03,.03-.08,.03-.11,0h0Z"/>
      <g>
        <path class="cls-1" d="M12.61,64.04c-3.87,1.92-8.07,2.93-12.61,3.05v-11.52c3.95-.33,7.3-1.69,10.06-4.1,2.76-2.41,4.65-5.34,5.68-8.8H.82v-11.03h15.25v-6.41h13.95v6.41h15.25v7.95h7.14v-13.14h13.71l.34,49.18c-3.75-3.75-8.44-6.85-14.06-7.79v-16.08h-9.07v-9.09h-13.55c-.43,1.73-.81,3-1.13,3.81l18.66,10.06-6.17,10.06-18.5-10.22c-2.81,3.2-6.16,5.74-10.02,7.67Z"/>
        <path class="cls-1" d="M106.19,41.6v-3.97h-27.98v-10.38h41.53v24.01h-27.82v3.97h17.04c3.14,0,6.13-.22,8.97-.65,2.84-.43,5.18-1,7.02-1.71v10.22c-1.73,.82-4.09,1.43-7.06,1.86s-6.14,.65-9.49,.65h-30.02v-24.01h27.81Zm35.7,1.13v5.11h8.12v11.44h-8.12v23.06c-3.13-5.59-7.77-9.75-13.71-12.62V26.43h13.71v4.86h8.12v11.44h-8.12Z"/>
      </g>
      <g>
        <path class="cls-1" d="M16.17,0l7.12,12.73L30.4,0h2.12V18.74h-2.42V4.91l-5.94,10.67h-1.75l-5.94-10.67v13.83h-2.42V0h2.12Z"/>
        <path class="cls-1" d="M50.59,14.11h-8.87l-1.85,4.63h-2.53L44.95,0h2.56l7.58,18.74h-2.65l-1.85-4.63Zm-.85-2.17l-3.57-9.05-3.59,9.05h7.16Z"/>
        <path class="cls-1" d="M71.97,18.74l-4.19-6.67c-.46,.03-.81,.05-1.04,.05h-4.49v6.63h-2.42V0h6.91c1.54,0,2.86,.24,3.97,.74,1.12,.49,1.96,1.19,2.55,2.11,.58,.91,.87,1.99,.87,3.21,0,1.33-.34,2.46-1.01,3.42s-1.65,1.65-2.92,2.11l4.63,7.16h-2.86Zm-1.61-9.82c.91-.67,1.36-1.62,1.36-2.87s-.45-2.2-1.36-2.87c-.91-.67-2.17-.99-3.8-.99h-4.31v7.72h4.31c1.63,0,2.9-.33,3.8-.99Z"/>
        <path class="cls-1" d="M87.7,10.39l-3.32,3.74v4.61h-2.42V0h2.42V10.81L93.85,0h3.02l-7.6,8.61,8.13,10.13h-3.08l-6.61-8.35h0Z"/>
        <path class="cls-1" d="M115.06,0V2.17h-10.69v5.89h9.89v2.17h-9.89v6.32h10.9v2.17h-13.32V0h13.11Z"/>
        <path class="cls-1" d="M129.35,2.2V18.74h-2.42V2.2h-6.64V0h15.67V2.2h-6.62Z"/>
      </g>
    </g>
  </g>
</svg>