<?xml version="1.0" encoding="UTF-8"?>
<svg id="Layer_1" data-name="Layer 1" xmlns="http://www.w3.org/2000/svg" viewBox="0 0 180 180">
  <defs>
    <style>
      .cls-1 {
        fill: #fff;
      }

      .cls-2 {
        fill: #214aee;
      }
    </style>
  </defs>
  <rect class="cls-2" y="0" width="180" height="180" rx="20" ry="20"/>
  <g id="Layer_1-2" data-name="Layer 1-2">
    <g>
      <path class="cls-1" d="M103.38,120.73c-3.63-3.74-7.14-7.35-10.65-10.96-.03-.03-.03-.05,0-.08,6.78-8.31,15.05-14.41,27.08-15.18,14.04-.9,26.6,5.58,32.53,16.69,10.93,20.46-7.88,43.72-33.18,41.74-8.11-.63-15.21-3.91-21.1-9.8-9.53-9.52-18.76-19.29-28.18-28.91-4.58-4.67-10.54-6.21-17.43-4.6-3.53,.82-6.68,2.71-8.72,5.4-8.52,11.17,1.65,24.33,14.99,23.08,4.65-.44,8.45-2.24,11.48-5.4,1.97-2.06,3.98-4.1,6.07-6.25,.03-.03,.08-.03,.11,0,3.62,3.74,7.15,7.37,10.66,10.98,.03,.03,.03,.05,0,.08-5.16,6.17-11.04,11.27-19.16,13.75-19.24,5.89-40.17-5.48-43.06-23.44-2.61-16.27,10-31.24,28.42-33.2,11.11-1.18,20.8,1.85,28.3,9.31,9.59,9.52,18.85,19.32,28.27,28.99,8.32,8.53,24.4,6.69,28.67-5.27,1.3-3.63,.72-7.57-1.32-10.91-3.43-5.62-9-8.08-16.05-7.63-4.72,.31-8.54,2.21-11.58,5.42-1.94,2.04-3.93,4.05-6.03,6.21-.03,.03-.08,.03-.11,0h0Z"/>
      <g>
        <path class="cls-1" d="M30.09,88.44c-3.72,1.85-7.75,2.82-12.11,2.93v-11.06c3.79-.31,7.01-1.62,9.66-3.93,2.65-2.31,4.46-5.13,5.45-8.45h-14.33v-10.59h14.64v-6.16h13.4v6.16h14.64v7.63h6.86v-12.62h13.17l.32,47.23c-3.6-3.6-8.11-6.58-13.5-7.48v-15.44h-8.71v-8.73h-13.01c-.41,1.66-.77,2.88-1.09,3.66l17.92,9.66-5.92,9.66-17.77-9.82c-2.7,3.07-5.91,5.52-9.62,7.36Z"/>
        <path class="cls-1" d="M119.95,66.9v-3.82h-26.87v-9.97h39.89v23.06h-26.72v3.82h16.36c3.01,0,5.89-.21,8.61-.62,2.73-.41,4.98-.96,6.74-1.64v9.82c-1.67,.78-3.92,1.38-6.78,1.79-2.85,.41-5.9,.62-9.12,.62h-28.83v-23.06h26.71Zm34.28,1.09v4.91h7.79v10.99h-7.79v22.15c-3.01-5.37-7.46-9.36-13.17-12.12V52.33h13.17v4.67h7.79v10.99h-7.79Z"/>
      </g>
      <g>
        <path class="cls-1" d="M33.5,26.95l6.84,12.22,6.83-12.22h2.03v18h-2.32v-13.28l-5.71,10.25h-1.68l-5.71-10.25v13.28h-2.32V26.95h2.03Z"/>
        <path class="cls-1" d="M66.56,40.5h-8.51l-1.77,4.45h-2.43l7.3-18h2.46l7.28,18h-2.55l-1.77-4.45Zm-.82-2.09l-3.43-8.69-3.45,8.69h6.88Z"/>
        <path class="cls-1" d="M87.09,44.95l-4.02-6.41c-.44,.03-.77,.05-1,.05h-4.31v6.36h-2.32V26.95h6.63c1.48,0,2.75,.23,3.82,.71,1.07,.47,1.88,1.14,2.45,2.02,.56,.87,.84,1.91,.84,3.09,0,1.28-.32,2.37-.97,3.29s-1.58,1.58-2.81,2.03l4.45,6.88h-2.74Zm-1.55-9.43c.87-.64,1.3-1.56,1.3-2.75s-.43-2.11-1.3-2.75c-.87-.64-2.09-.95-3.65-.95h-4.14v7.42h4.14c1.57,0,2.78-.32,3.65-.95Z"/>
        <path class="cls-1" d="M102.2,36.93l-3.19,3.59v4.43h-2.32V26.95h2.32v10.39l9.09-10.39h2.9l-7.3,8.27,7.81,9.73h-2.96l-6.35-8.02h0Z"/>
        <path class="cls-1" d="M128.48,26.95v2.09h-10.27v5.66h9.5v2.09h-9.5v6.07h10.47v2.09h-12.79V26.95h12.59Z"/>
        <path class="cls-1" d="M142.19,29.06v15.89h-2.32v-15.89h-6.37v-2.11h15.05v2.11h-6.35Z"/>
      </g>
    </g>
  </g>
</svg>