<svg width="31" height="31" viewBox="0 0 31 31" fill="none" xmlns="http://www.w3.org/2000/svg">
<path fill-rule="evenodd" clip-rule="evenodd" d="M15.5 31C24.0604 31 31 24.0604 31 15.5C31 6.93959 24.0604 0 15.5 0C6.93959 0 0 6.93959 0 15.5C0 24.0604 6.93959 31 15.5 31ZM14.8571 7.2H12C11.0059 7.2 10.2 8.00589 10.2 9C10.2 9.99411 11.0059 10.8 12 10.8H14.8571V7.2ZM14.8571 5H14.9429H17.0571H17.1429H20C22.2091 5 24 6.79086 24 9C24 10.3711 23.3102 11.581 22.2587 12.3017C23.3183 13.125 24 14.4115 24 15.8572C24 18.3425 21.9853 20.3572 19.5 20.3572C18.6357 20.3572 17.8284 20.1135 17.1429 19.6912V19.8571V20.9143V22.1429C17.1429 24.6676 15.0962 26.7143 12.5714 26.7143H12C9.79086 26.7143 8 24.9234 8 22.7143C8 21.2592 8.77691 19.9857 9.93852 19.2857C8.77691 18.5858 8 17.3122 8 15.8571C8 14.4021 8.7769 13.1285 9.93852 12.4286C8.77691 11.7286 8 10.455 8 9C8 6.79086 9.79086 5 12 5H14.8571ZM17.1429 10.8H20C20.9941 10.8 21.8 9.99411 21.8 9C21.8 8.00589 20.9941 7.2 20 7.2H17.1429V10.8ZM12 14.0571H14.9429V17.6571H12C11.0059 17.6571 10.2 16.8513 10.2 15.8571C10.2 14.863 11.0059 14.0571 12 14.0571ZM14.9429 20.9143H12C11.0059 20.9143 10.2 21.7202 10.2 22.7143C10.2 23.7084 11.0059 24.5143 12 24.5143H12.5714C13.8811 24.5143 14.9429 23.4526 14.9429 22.1429V20.9143ZM21.8 15.8572C21.8 17.1274 20.7703 18.1572 19.5 18.1572C18.2297 18.1572 17.2 17.1274 17.2 15.8572C17.2 14.5869 18.2297 13.5572 19.5 13.5572C20.7703 13.5572 21.8 14.5869 21.8 15.8572Z" fill="white"/>
</svg>
