<svg width="22" height="31" viewBox="0 0 22 31" fill="none" xmlns="http://www.w3.org/2000/svg">
<path d="M10.9596 2.05518H6.4388C5.2398 2.05518 4.08991 2.53148 3.24209 3.3793C2.39427 4.22712 1.91797 5.37701 1.91797 6.57601C1.91797 7.77501 2.39427 8.9249 3.24209 9.77272C4.08991 10.6205 5.2398 11.0968 6.4388 11.0968M10.9596 2.05518V11.0968M10.9596 2.05518H15.4805C16.0742 2.05518 16.662 2.17211 17.2105 2.3993C17.759 2.6265 18.2574 2.9595 18.6772 3.3793C19.097 3.7991 19.43 4.29747 19.6572 4.84596C19.8844 5.39445 20.0013 5.98232 20.0013 6.57601C20.0013 7.16969 19.8844 7.75756 19.6572 8.30606C19.43 8.85455 19.097 9.35292 18.6772 9.77272C18.2574 10.1925 17.759 10.5255 17.2105 10.7527C16.662 10.9799 16.0742 11.0968 15.4805 11.0968M10.9596 11.0968H6.4388M10.9596 11.0968H15.4805M10.9596 11.0968V20.1385M6.4388 11.0968C5.2398 11.0968 4.08991 11.5731 3.24209 12.421C2.39427 13.2688 1.91797 14.4187 1.91797 15.6177C1.91797 16.8167 2.39427 17.9666 3.24209 18.8144C4.08991 19.6622 5.2398 20.1385 6.4388 20.1385M15.4805 11.0968C14.8868 11.0968 14.2989 11.2138 13.7504 11.441C13.2019 11.6682 12.7036 12.0012 12.2838 12.421C11.864 12.8408 11.531 13.3391 11.3038 13.8876C11.0766 14.4361 10.9596 15.024 10.9596 15.6177C10.9596 16.2114 11.0766 16.7992 11.3038 17.3477C11.531 17.8962 11.864 18.3946 12.2838 18.8144C12.7036 19.2342 13.2019 19.5672 13.7504 19.7944C14.2989 20.0216 14.8868 20.1385 15.4805 20.1385C16.0742 20.1385 16.662 20.0216 17.2105 19.7944C17.759 19.5672 18.2574 19.2342 18.6772 18.8144C19.097 18.3946 19.43 17.8962 19.6572 17.3477C19.8844 16.7992 20.0013 16.2114 20.0013 15.6177C20.0013 15.024 19.8844 14.4361 19.6572 13.8876C19.43 13.3391 19.097 12.8408 18.6772 12.421C18.2574 12.0012 17.759 11.6682 17.2105 11.441C16.662 11.2138 16.0742 11.0968 15.4805 11.0968ZM6.4388 20.1385C5.2398 20.1385 4.08991 20.6148 3.24209 21.4626C2.39427 22.3104 1.91797 23.4603 1.91797 24.6593C1.91797 25.8583 2.39427 27.0082 3.24209 27.8561C4.08991 28.7039 5.2398 29.1802 6.4388 29.1802C7.6378 29.1802 8.78769 28.7039 9.63551 27.8561C10.4833 27.0082 10.9596 25.8583 10.9596 24.6593V20.1385M6.4388 20.1385H10.9596" stroke="currentColor" stroke-width="2.5" stroke-linecap="round" stroke-linejoin="round"/>
</svg>
