<svg width="31" height="31" viewBox="0 0 31 31" fill="none" xmlns="http://www.w3.org/2000/svg">
<path d="M15.5 0.382324C6.93625 0.382324 0 7.31857 0 15.8823C0 22.7411 4.43687 28.5342 10.5981 30.5879C11.3731 30.7236 11.6637 30.2586 11.6637 29.8517C11.6637 29.4836 11.6444 28.2629 11.6444 26.9648C7.75 27.6817 6.7425 26.0154 6.4325 25.1436C6.25812 24.6979 5.5025 23.3223 4.84375 22.9542C4.30125 22.6636 3.52625 21.9467 4.82438 21.9273C6.045 21.9079 6.91688 23.0511 7.2075 23.5161C8.6025 25.8604 10.8306 25.2017 11.7219 24.7948C11.8575 23.7873 12.2644 23.1092 12.71 22.7217C9.26125 22.3342 5.6575 20.9973 5.6575 15.0686C5.6575 13.3829 6.25813 11.9879 7.24625 10.9029C7.09125 10.5154 6.54875 8.9267 7.40125 6.79545C7.40125 6.79545 8.69938 6.38857 11.6637 8.3842C12.9037 8.03545 14.2213 7.86107 15.5388 7.86107C16.8563 7.86107 18.1738 8.03545 19.4138 8.3842C22.3781 6.3692 23.6763 6.79545 23.6763 6.79545C24.5288 8.9267 23.9863 10.5154 23.8313 10.9029C24.8194 11.9879 25.42 13.3636 25.42 15.0686C25.42 21.0167 21.7969 22.3342 18.3481 22.7217C18.91 23.2061 19.3944 24.1361 19.3944 25.5892C19.3944 27.6623 19.375 29.3286 19.375 29.8517C19.375 30.2586 19.6656 30.7429 20.4406 30.5879C23.5181 29.5499 26.1924 27.5726 28.0868 24.9344C29.9811 22.2962 31 19.1302 31 15.8823C31 7.31857 24.0638 0.382324 15.5 0.382324Z" fill="white"/>
</svg>
