<svg width="31" height="31" viewBox="0 0 31 31" fill="none" xmlns="http://www.w3.org/2000/svg">
<path d="M15.5 0.5C6.93625 0.5 0 7.43625 0 16C0 22.8587 4.43687 28.6519 10.5981 30.7056C11.3731 30.8412 11.6637 30.3762 11.6637 29.9694C11.6637 29.6012 11.6444 28.3806 11.6444 27.0825C7.75 27.7994 6.7425 26.1331 6.4325 25.2612C6.25812 24.8156 5.5025 23.44 4.84375 23.0719C4.30125 22.7812 3.52625 22.0644 4.82438 22.045C6.045 22.0256 6.91687 23.1687 7.2075 23.6337C8.6025 25.9781 10.8306 25.3194 11.7219 24.9125C11.8575 23.905 12.2644 23.2269 12.71 22.8394C9.26125 22.4519 5.6575 21.115 5.6575 15.1862C5.6575 13.5006 6.25812 12.1056 7.24625 11.0206C7.09125 10.6331 6.54875 9.04437 7.40125 6.91313C7.40125 6.91313 8.69938 6.50625 11.6637 8.50187C12.9037 8.15313 14.2213 7.97875 15.5388 7.97875C16.8563 7.97875 18.1738 8.15313 19.4138 8.50187C22.3781 6.48688 23.6763 6.91313 23.6763 6.91313C24.5288 9.04437 23.9862 10.6331 23.8313 11.0206C24.8194 12.1056 25.42 13.4812 25.42 15.1862C25.42 21.1344 21.7969 22.4519 18.3481 22.8394C18.91 23.3237 19.3944 24.2537 19.3944 25.7069C19.3944 27.78 19.375 29.4463 19.375 29.9694C19.375 30.3762 19.6656 30.8606 20.4406 30.7056C23.5181 29.6676 26.1924 27.6902 28.0868 25.0521C29.9811 22.4139 31 19.2479 31 16C31 7.43625 24.0637 0.5 15.5 0.5Z" fill="currentColor"/>
</svg>
