<svg width="30" height="31" viewBox="0 0 30 31" fill="none" xmlns="http://www.w3.org/2000/svg">
<path d="M15 0.5C10.9294 0.5 10.4175 0.51875 8.81813 0.59C7.21875 0.665 6.12937 0.91625 5.175 1.2875C4.17346 1.66311 3.26651 2.25387 2.51813 3.01813C1.75387 3.76651 1.16311 4.67346 0.7875 5.675C0.41625 6.6275 0.163125 7.71875 0.09 9.3125C0.01875 10.9156 0 11.4256 0 15.5019C0 19.5744 0.01875 20.0844 0.09 21.6838C0.165 23.2813 0.41625 24.3706 0.7875 25.325C1.17187 26.3112 1.68375 27.1475 2.51813 27.9819C3.35063 28.8162 4.18688 29.33 5.17313 29.7125C6.12938 30.0837 7.21688 30.3369 8.81438 30.41C10.4156 30.4812 10.9256 30.5 15 30.5C19.0744 30.5 19.5825 30.4812 21.1838 30.41C22.7794 30.335 23.8725 30.0837 24.8269 29.7125C25.8277 29.3366 26.734 28.7459 27.4819 27.9819C28.3162 27.1475 28.8281 26.3112 29.2125 25.325C29.5819 24.3706 29.835 23.2813 29.91 21.6838C29.9812 20.0844 30 19.5744 30 15.5C30 11.4256 29.9812 10.9156 29.91 9.31438C29.835 7.71875 29.5819 6.6275 29.2125 5.675C28.8369 4.67346 28.2461 3.76651 27.4819 3.01813C26.7335 2.25387 25.8265 1.66311 24.825 1.2875C23.8687 0.91625 22.7775 0.663125 21.1819 0.59C19.5806 0.51875 19.0725 0.5 14.9963 0.5H15ZM13.6556 3.20375H15.0019C19.0069 3.20375 19.4812 3.21688 21.0619 3.29C22.5244 3.35563 23.3194 3.60125 23.8481 3.80563C24.5475 4.0775 25.0481 4.40375 25.5731 4.92875C26.0981 5.45375 26.4225 5.9525 26.6944 6.65375C26.9006 7.18063 27.1444 7.97563 27.21 9.43813C27.2831 11.0188 27.2981 11.4931 27.2981 15.4963C27.2981 19.4994 27.2831 19.9756 27.21 21.5562C27.1444 23.0187 26.8988 23.8119 26.6944 24.3406C26.4522 24.9911 26.0686 25.5796 25.5712 26.0637C25.0462 26.5887 24.5475 26.9131 23.8463 27.185C23.3213 27.3913 22.5262 27.635 21.0619 27.7025C19.4812 27.7738 19.0069 27.7906 15.0019 27.7906C10.9969 27.7906 10.5206 27.7738 8.94 27.7025C7.4775 27.635 6.68437 27.3913 6.15562 27.185C5.50469 26.9436 4.9155 26.5606 4.43062 26.0637C3.93239 25.5793 3.54812 24.99 3.30563 24.3387C3.10125 23.8119 2.85563 23.0169 2.79 21.5544C2.71875 19.9738 2.70375 19.4994 2.70375 15.4925C2.70375 11.4856 2.71875 11.015 2.79 9.43437C2.8575 7.97187 3.10125 7.17688 3.3075 6.64813C3.57938 5.94875 3.90562 5.44812 4.43062 4.92312C4.95562 4.39812 5.45437 4.07375 6.15562 3.80188C6.68437 3.59563 7.4775 3.35188 8.94 3.28438C10.3238 3.22063 10.86 3.20188 13.6556 3.2V3.20375ZM23.0081 5.69375C22.7717 5.69375 22.5377 5.74031 22.3193 5.83077C22.1009 5.92123 21.9025 6.05381 21.7353 6.22096C21.5682 6.3881 21.4356 6.58653 21.3451 6.80492C21.2547 7.02331 21.2081 7.25737 21.2081 7.49375C21.2081 7.73013 21.2547 7.96419 21.3451 8.18258C21.4356 8.40097 21.5682 8.5994 21.7353 8.76654C21.9025 8.93369 22.1009 9.06627 22.3193 9.15673C22.5377 9.24719 22.7717 9.29375 23.0081 9.29375C23.4855 9.29375 23.9434 9.10411 24.2809 8.76654C24.6185 8.42898 24.8081 7.97114 24.8081 7.49375C24.8081 7.01636 24.6185 6.55852 24.2809 6.22096C23.9434 5.88339 23.4855 5.69375 23.0081 5.69375ZM15.0019 7.7975C13.9801 7.78156 12.9654 7.96904 12.0168 8.34901C11.0682 8.72899 10.2047 9.29388 9.47653 10.0108C8.74835 10.7277 8.17006 11.5823 7.77533 12.5249C7.3806 13.4674 7.17731 14.4791 7.17731 15.5009C7.17731 16.5228 7.3806 17.5345 7.77533 18.477C8.17006 19.4196 8.74835 20.2742 9.47653 20.9911C10.2047 21.708 11.0682 22.2729 12.0168 22.6529C12.9654 23.0328 13.9801 23.2203 15.0019 23.2044C17.0241 23.1728 18.9529 22.3473 20.3718 20.9061C21.7908 19.4649 22.5861 17.5234 22.5861 15.5009C22.5861 13.4784 21.7908 11.537 20.3718 10.0958C18.9529 8.65454 17.0241 7.82905 15.0019 7.7975ZM15.0019 10.4994C15.6586 10.4994 16.3088 10.6287 16.9155 10.88C17.5222 11.1313 18.0735 11.4997 18.5379 11.964C19.0022 12.4284 19.3705 12.9796 19.6219 13.5863C19.8732 14.193 20.0025 14.8433 20.0025 15.5C20.0025 16.1567 19.8732 16.807 19.6219 17.4137C19.3705 18.0204 19.0022 18.5716 18.5379 19.036C18.0735 19.5003 17.5222 19.8687 16.9155 20.12C16.3088 20.3713 15.6586 20.5006 15.0019 20.5006C13.6756 20.5006 12.4037 19.9738 11.4659 19.036C10.5281 18.0982 10.0013 16.8262 10.0013 15.5C10.0013 14.1738 10.5281 12.9018 11.4659 11.964C12.4037 11.0262 13.6756 10.4994 15.0019 10.4994Z" fill="white"/>
</svg>
