<svg width="30" height="31" viewBox="0 0 30 31" fill="none" xmlns="http://www.w3.org/2000/svg">
<path d="M15 0.617676C10.9294 0.617676 10.4175 0.636426 8.81812 0.707676C7.21875 0.782676 6.12937 1.03393 5.175 1.40518C4.17346 1.78079 3.26651 2.37155 2.51813 3.1358C1.75387 3.88419 1.16311 4.79113 0.7875 5.79268C0.41625 6.74518 0.163125 7.83643 0.09 9.43018C0.01875 11.0333 0 11.5433 0 15.6196C0 19.6921 0.01875 20.2021 0.09 21.8014C0.165 23.3989 0.41625 24.4883 0.7875 25.4427C1.17188 26.4289 1.68375 27.2652 2.51813 28.0996C3.35063 28.9339 4.18687 29.4477 5.17313 29.8302C6.12937 30.2014 7.21688 30.4545 8.81437 30.5277C10.4156 30.5989 10.9256 30.6177 15 30.6177C19.0744 30.6177 19.5825 30.5989 21.1838 30.5277C22.7794 30.4527 23.8725 30.2014 24.8269 29.8302C25.8277 29.4543 26.734 28.8636 27.4819 28.0996C28.3162 27.2652 28.8281 26.4289 29.2125 25.4427C29.5819 24.4883 29.835 23.3989 29.91 21.8014C29.9812 20.2021 30 19.6921 30 15.6177C30 11.5433 29.9812 11.0333 29.91 9.43205C29.835 7.83643 29.5819 6.74518 29.2125 5.79268C28.8369 4.79113 28.2461 3.88419 27.4819 3.1358C26.7335 2.37155 25.8265 1.78079 24.825 1.40518C23.8687 1.03393 22.7775 0.780801 21.1819 0.707676C19.5806 0.636426 19.0725 0.617676 14.9963 0.617676H15ZM13.6556 3.32143H15.0019C19.0069 3.32143 19.4812 3.33455 21.0619 3.40768C22.5244 3.4733 23.3194 3.71893 23.8481 3.9233C24.5475 4.19518 25.0481 4.52143 25.5731 5.04643C26.0981 5.57143 26.4225 6.07018 26.6944 6.77143C26.9006 7.2983 27.1444 8.0933 27.21 9.5558C27.2831 11.1364 27.2981 11.6108 27.2981 15.6139C27.2981 19.6171 27.2831 20.0933 27.21 21.6739C27.1444 23.1364 26.8988 23.9296 26.6944 24.4583C26.4522 25.1087 26.0686 25.6973 25.5712 26.1814C25.0462 26.7064 24.5475 27.0308 23.8463 27.3027C23.3213 27.5089 22.5262 27.7527 21.0619 27.8202C19.4812 27.8914 19.0069 27.9083 15.0019 27.9083C10.9969 27.9083 10.5206 27.8914 8.94 27.8202C7.4775 27.7527 6.68437 27.5089 6.15562 27.3027C5.50469 27.0613 4.9155 26.6783 4.43062 26.1814C3.93239 25.6969 3.54812 25.1077 3.30562 24.4564C3.10125 23.9296 2.85563 23.1346 2.79 21.6721C2.71875 20.0914 2.70375 19.6171 2.70375 15.6102C2.70375 11.6033 2.71875 11.1327 2.79 9.55205C2.8575 8.08955 3.10125 7.29455 3.3075 6.7658C3.57938 6.06643 3.90562 5.5658 4.43062 5.0408C4.95563 4.5158 5.45437 4.19143 6.15562 3.91955C6.68437 3.7133 7.4775 3.46955 8.94 3.40205C10.3238 3.3383 10.86 3.31955 13.6556 3.31768V3.32143ZM23.0081 5.81143C22.7717 5.81143 22.5377 5.85798 22.3193 5.94844C22.1009 6.0389 21.9025 6.17149 21.7353 6.33863C21.5682 6.50578 21.4356 6.70421 21.3451 6.9226C21.2547 7.14098 21.2081 7.37505 21.2081 7.61143C21.2081 7.84781 21.2547 8.08187 21.3451 8.30026C21.4356 8.51864 21.5682 8.71707 21.7353 8.88422C21.9025 9.05136 22.1009 9.18395 22.3193 9.27441C22.5377 9.36487 22.7717 9.41143 23.0081 9.41143C23.4855 9.41143 23.9434 9.22178 24.2809 8.88422C24.6185 8.54665 24.8081 8.08882 24.8081 7.61143C24.8081 7.13404 24.6185 6.6762 24.2809 6.33863C23.9434 6.00107 23.4855 5.81143 23.0081 5.81143ZM15.0019 7.91518C13.9801 7.89923 12.9654 8.08671 12.0168 8.46669C11.0682 8.84667 10.2047 9.41156 9.47653 10.1285C8.74835 10.8454 8.17006 11.7 7.77533 12.6425C7.3806 13.5851 7.17731 14.5967 7.17731 15.6186C7.17731 16.6405 7.3806 17.6521 7.77533 18.5947C8.17006 19.5372 8.74835 20.3918 9.47653 21.1088C10.2047 21.8257 11.0682 22.3906 12.0168 22.7705C12.9654 23.1505 13.9801 23.338 15.0019 23.3221C17.0241 23.2905 18.9529 22.465 20.3718 21.0238C21.7908 19.5825 22.5861 17.6411 22.5861 15.6186C22.5861 13.5961 21.7908 11.6547 20.3718 10.2135C18.9529 8.77221 17.0241 7.94673 15.0019 7.91518ZM15.0019 10.6171C15.6586 10.6171 16.3088 10.7464 16.9155 10.9977C17.5222 11.249 18.0735 11.6173 18.5379 12.0817C19.0022 12.5461 19.3705 13.0973 19.6219 13.704C19.8732 14.3107 20.0025 14.961 20.0025 15.6177C20.0025 16.2744 19.8732 16.9246 19.6219 17.5313C19.3705 18.138 19.0022 18.6893 18.5379 19.1537C18.0735 19.618 17.5222 19.9863 16.9155 20.2376C16.3088 20.489 15.6586 20.6183 15.0019 20.6183C13.6756 20.6183 12.4037 20.0914 11.4659 19.1537C10.5281 18.2159 10.0013 16.9439 10.0013 15.6177C10.0013 14.2914 10.5281 13.0195 11.4659 12.0817C12.4037 11.1439 13.6756 10.6171 15.0019 10.6171Z" fill="currentColor"/>
</svg>
