<svg width="11" height="11" viewBox="0 0 11 11" fill="none" xmlns="http://www.w3.org/2000/svg">
<path d="M9.39422 2.28791L10.2478 1.43436H9.04067H5.38194C5.35126 1.43436 5.32639 1.40949 5.32639 1.3788C5.32639 1.34811 5.35126 1.32324 5.38194 1.32324H10.3819C10.4126 1.32324 10.4375 1.34811 10.4375 1.3788V6.37884C10.4375 6.40953 10.4126 6.4344 10.3819 6.4344C10.3513 6.4344 10.3264 6.40953 10.3264 6.37884V2.71997V1.51285L9.47283 2.36641L1.53235 10.307C1.51065 10.3287 1.47546 10.3287 1.45376 10.307C1.43204 10.2852 1.43212 10.2501 1.45376 10.2284L1.45377 10.2284L9.39422 2.28791Z" stroke="currentColor"/>
</svg>
