<svg width="43" height="30" viewBox="0 0 43 30" fill="none" xmlns="http://www.w3.org/2000/svg">
<path d="M25.1525 20.4834C24.0844 19.3835 23.0507 18.3181 22.0171 17.2553C22.0091 17.2473 22.0091 17.2394 22.0171 17.2314C24.0128 14.7851 26.4485 12.9882 29.992 12.7602C34.1266 12.4952 37.8239 14.4035 39.5731 17.674C42.7933 23.6983 37.2541 30.5495 29.8012 29.9664C27.4132 29.7809 25.3221 28.8162 23.5861 27.0802C20.7794 24.2761 18.0627 21.4004 15.2878 18.5672C13.9388 17.1916 12.1842 16.7384 10.154 17.2129C9.11508 17.454 8.18745 18.0106 7.58582 18.8031C5.07592 22.0922 8.07084 25.967 12.0013 25.5986C13.3716 25.4688 14.49 24.9387 15.3806 24.0084C15.961 23.4015 16.552 22.8025 17.1669 22.169C17.1749 22.1611 17.1908 22.1611 17.1987 22.169C18.2642 23.2689 19.3058 24.3397 20.3368 25.4025C20.3447 25.4104 20.3447 25.4184 20.3368 25.4263C18.8181 27.2418 17.0847 28.7446 14.6941 29.4761C9.02762 31.2095 2.86551 27.862 2.01474 22.5745C1.24613 17.7827 4.9593 13.3751 10.3846 12.7973C13.6552 12.4501 16.5096 13.3433 18.72 15.5378C21.5453 18.3419 24.2699 21.2282 27.0448 24.0747C29.4938 26.5872 34.23 26.0439 35.4889 22.5215C35.8706 21.4534 35.7009 20.2926 35.0993 19.3093C34.0895 17.6528 32.4489 16.9293 30.3737 17.0618C28.9849 17.1519 27.8585 17.7138 26.9627 18.6573C26.3902 19.2589 25.8045 19.85 25.1869 20.4861C25.179 20.494 25.1631 20.494 25.1551 20.4861L25.1525 20.4834Z" fill="#214AEE"/>
<path d="M3.5674 10.974C2.4728 11.5173 1.28543 11.8035 0 11.8353V8.57803C1.11581 8.48526 2.06464 8.10096 2.84385 7.41981C3.62306 6.73867 4.15843 5.9091 4.44997 4.93112H0.230582V1.81163H4.54273V-0.0012207H8.48914V1.81163H12.8013V4.05915H14.8209V0.343327H18.6984L18.7938 14.2525C17.7336 13.1923 16.4058 12.315 14.8182 12.05V7.50198H12.2527V4.93112H8.42023C8.29831 5.42144 8.19229 5.77924 8.09953 6.00982L13.3764 8.85367L11.6325 11.6975L6.40064 8.80596C5.60553 9.70974 4.65935 10.4306 3.5674 10.974Z" fill="#214AEE"/>
<path d="M30.0312 4.62908V3.50533H22.1172V0.568717H33.8636V7.35896H25.9947V8.48272H30.8131C31.7009 8.48272 32.5464 8.42176 33.3495 8.29985C34.1525 8.17793 34.8151 8.01626 35.3346 7.81748V10.709C34.8443 10.9396 34.179 11.1145 33.3389 11.2365C32.4987 11.3584 31.6029 11.4193 30.654 11.4193H22.1649V4.62908H30.0338H30.0312ZM40.1265 4.94978V6.39423H42.4217V9.63033H40.1265V16.1529C39.2412 14.5706 37.9293 13.3965 36.249 12.5828V0.338135H40.1265V1.71368H42.4217V4.94978H40.1265Z" fill="#214AEE"/>
</svg>
