<svg xmlns="http://www.w3.org/2000/svg" viewBox="0 0 316.18 113.21" width="current" height="current" fill="#214aee">
  <g>
    <path  d="M94.9,77.3c-4.03-4.15-7.93-8.17-11.83-12.18-.03-.03-.03-.06,0-.09,7.53-9.23,16.72-16.01,30.09-16.87,15.6-1,29.55,6.2,36.15,18.54,12.15,22.73-8.75,48.58-36.87,46.38-9.01-.7-16.9-4.34-23.45-10.89-10.59-10.58-20.84-21.43-31.31-32.12-5.09-5.19-11.71-6.9-19.37-5.11-3.92,.91-7.42,3.01-9.69,6-9.47,12.41,1.83,27.03,16.66,25.64,5.17-.49,9.39-2.49,12.75-6,2.19-2.29,4.42-4.55,6.74-6.94,.03-.03,.09-.03,.12,0,4.02,4.15,7.95,8.19,11.84,12.2,.03,.03,.03,.06,0,.09-5.73,6.85-12.27,12.52-21.29,15.28-21.38,6.54-44.63-6.09-47.84-26.04-2.9-18.08,11.11-34.71,31.58-36.89,12.34-1.31,23.11,2.06,31.45,10.34,10.66,10.58,20.94,21.47,31.41,32.21,9.24,9.48,27.11,7.43,31.86-5.86,1.44-4.03,.8-8.41-1.47-12.12-3.81-6.25-10-8.98-17.83-8.48-5.24,.34-9.49,2.46-12.87,6.02-2.16,2.27-4.37,4.5-6.7,6.9-.03,.03-.09,.03-.12,0Z"/>
    <g>
      <path  d="M13.46,41.42c-4.13,2.05-8.61,3.13-13.46,3.25v-12.29c4.21-.35,7.79-1.8,10.73-4.37,2.94-2.57,4.96-5.7,6.06-9.39H.87V6.84H17.14V0h14.89V6.84h16.27V15.32h7.62V1.3h14.63l.36,52.48c-4-4-9.01-7.31-15-8.31V28.31s-9.68,0-9.68,0v-9.7h-14.46c-.46,1.85-.86,3.2-1.21,4.07l19.91,10.73-6.58,10.73-19.74-10.91c-3,3.41-6.57,6.13-10.69,8.18Z"/>
      <path  d="M113.31,17.49v-4.24h-29.86V2.16h44.32V27.79h-29.69v4.24h18.18c3.35,0,6.54-.23,9.57-.69,3.03-.46,5.53-1.07,7.49-1.82v10.91c-1.85,.87-4.36,1.53-7.53,1.99-3.17,.46-6.55,.69-10.13,.69h-32.03V17.49h29.69Zm38.09,1.21v5.45h8.66v12.21h-8.66v24.61c-3.34-5.97-8.29-10.4-14.63-13.47V1.3s14.63,0,14.63,0V6.49h8.66v12.21h-8.66Z"/>
    </g>
    <g>
      <path  d="M168.96,1.82h39.23v62.68h-39.23V1.82Zm13.34,50.28h12.55V14.22h-12.55V52.11Zm55.57-14.29h-7.89v29.84h-13.34V.24h13.34V24.87h7.89v12.95Z"/>
      <path  d="M264.87,40.27c-5.05,2.9-11.08,4.34-18.08,4.34v-11.21c4.05-.05,7.37-.55,9.95-1.5,2.58-.95,4.55-2.42,5.92-4.42h-15.87v-10.82h18.71v-4.58h-18.71V1.03h31.02V15.56h5.84V.56h12.31V37.9h-12.31v-10.18h-7.97c-2.16,5.47-5.76,9.66-10.81,12.55Zm46.97,28.18l-30.39-11.05c-3.89,3.37-8.54,5.92-13.93,7.66-5.4,1.74-11.09,2.6-17.09,2.6v-12.47c4.47,0,8.64-.63,12.51-1.89,3.87-1.26,7.12-3.08,9.75-5.45,2.63-2.37,4.39-5.18,5.29-8.45l13.34,2.6c-.53,2.1-1.32,4.11-2.37,6l27.23,8.68-4.34,11.76Zm1.26-20.6h-12.47V.24h12.47V47.84Z"/>
    </g>
    <g>
      <path  d="M168.96,76.29h6.57l12.73,20.66,12.73-20.66h6.57v36.92h-8.24v-20.25l-8.56,14.18h-4.98l-8.56-14.18v20.25h-8.25v-36.92Z"/>
      <path  d="M237.74,106.05h-14.31l-2.58,7.16h-8.52l14.31-36.92h8.56l14.31,36.92h-9.2l-2.58-7.16Zm-2.54-7.16l-4.62-12.87-4.62,12.87h9.24Z"/>
      <path  d="M261.75,76.29v29.63h18.44v7.29h-26.68v-36.92h8.25Z"/>
      <path  d="M294.67,76.29v29.63h18.44v7.29h-26.68v-36.92h8.25Z"/>
    </g>
  </g>
</svg>
