<svg xmlns="http://www.w3.org/2000/svg" width="24" height="17" viewBox="0 0 24 17" fill="none">
  <path d="M1.2 14.5714H15.6C16.2628 14.5714 16.8 15.1151 16.8 15.7857C16.8 16.4084 16.3368 16.9217 15.7399 16.9919L15.6 17H1.2C0.537264 17 0 16.4564 0 15.7857C0 15.163 0.463248 14.6498 1.06006 14.5796L1.2 14.5714ZM1.2 7.28571H22.8C23.4628 7.28571 24 7.82935 24 8.5C24 9.12269 23.5368 9.63597 22.9399 9.70615L22.8 9.71429H1.2C0.537264 9.71429 0 9.17065 0 8.5C0 7.87731 0.463248 7.36404 1.06006 7.29385L1.2 7.28571ZM1.2 0H19.2C19.8628 0 20.4 0.54366 20.4 1.21429C20.4 1.83702 19.9368 2.35026 19.3399 2.4204L19.2 2.42857H1.2C0.537264 2.42857 0 1.88491 0 1.21429C0 0.591551 0.463248 0.0783094 1.06006 0.00817224L1.2 0Z" fill="#214AEE"/>
</svg>