<svg xmlns="http://www.w3.org/2000/svg" width="current" height="current" viewBox="0 0 24 25" fill="none">
<g>
  <path d="M16 3.5H1V16.5H16V3.5Z" stroke="#FFEA7D" stroke-width="2" stroke-linecap="round" stroke-linejoin="round"/>
  <path d="M16 8.5H20L23 11.5V16.5H16V8.5Z" stroke="#FFEA7D" stroke-width="2" stroke-linecap="round" stroke-linejoin="round"/>
  <path d="M5.5 21.5C6.88071 21.5 8 20.3807 8 19C8 17.6193 6.88071 16.5 5.5 16.5C4.11929 16.5 3 17.6193 3 19C3 20.3807 4.11929 21.5 5.5 21.5Z" stroke="#FFEA7D" stroke-width="2" stroke-linecap="round" stroke-linejoin="round"/>
  <path d="M18.5 21.5C19.8807 21.5 21 20.3807 21 19C21 17.6193 19.8807 16.5 18.5 16.5C17.1193 16.5 16 17.6193 16 19C16 20.3807 17.1193 21.5 18.5 21.5Z" stroke="#FFEA7D" stroke-width="2" stroke-linecap="round" stroke-linejoin="round"/>
</g>
</svg>